<svg width="492" height="286" viewBox="0 0 492 286" fill="none" xmlns="http://www.w3.org/2000/svg">
<path d="M492 278.223C474.103 282.774 463.033 278.423 453.101 263.509L382.468 165.786L372.259 152.256L289.773 263.832C280.348 277.254 270.462 283.097 252.873 278.346L358.499 136.558L260.16 8.48412C277.073 5.19387 288.758 6.86974 299.136 22.0141L372.398 120.952L446.198 22.5523C455.653 9.12988 465.816 4.02537 482.79 8.97612L444.66 59.5291L393 126.795C386.85 134.482 387.696 139.741 393.354 147.167L492 278.223ZM0.123 134.19L8.76375 91.6936C32.2875 7.59237 128.689 -27.355 195.17 24.6125C234.023 55.178 243.678 98.4125 241.756 146.844H22.755C19.4648 234.02 82.2101 286.633 162.206 259.789C190.266 250.364 206.794 228.393 215.065 200.902C219.263 187.126 226.212 184.974 239.158 188.91C232.547 223.288 217.633 252.009 186.114 269.982C139.021 296.888 71.8012 288.186 36.4387 250.794C15.375 229.1 6.67275 201.61 2.7675 172.212C2.1525 167.354 0.9225 162.726 0 158.067C0.082 150.113 0.123 142.16 0.123 134.206V134.19ZM23.1548 128.348H221.062C219.77 65.3101 180.518 20.5381 126.874 20.1537C67.9882 19.6925 25.707 63.4036 23.1548 128.348V128.348Z" fill="#DADADA"/>
</svg>
